PathFileType	4	(X/Y/Z)	 control3min.trc
DataRate	CameraRate	NumFrames	NumMarkers	Units	OrigDataRate	OrigDataStartFrame	OrigNumFrames
200	200	8	34	m	200	376	1000
Frame#	Time	C7			LSH			RSH			RASI			LASI			HIPR			HIPL			RPSI			LPSI			COX			RTHI1			RTHI2			RTHI3			RTHI4			RSHA1			RSHA2			RSHA3			RSHA4			RHEEL			RMET5			RMET1			RTOE			LTHI1			LTHI2			LTHI3			LTHI4			LSHA1			LSHA2			LSHA3			LSHA4			LHEEL			LMET5			LMET1			LTOE			
		X1	Y1	Z1	X2	Y2	Z2	X3	Y3	Z3	X4	Y4	Z4	X5	Y5	Z5	X6	Y6	Z6	X7	Y7	Z7	X8	Y8	Z8	X9	Y9	Z9	X10	Y10	Z10	X11	Y11	Z11	X12	Y12	Z12	X13	Y13	Z13	X14	Y14	Z14	X15	Y15	Z15	X16	Y16	Z16	X17	Y17	Z17	X18	Y18	Z18	X19	Y19	Z19	X20	Y20	Z20	X21	Y21	Z21	X22	Y22	Z22	X23	Y23	Z23	X24	Y24	Z24	X25	Y25	Z25	X26	Y26	Z26	X27	Y27	Z27	X28	Y28	Z28	X29	Y29	Z29	X30	Y30	Z30	X31	Y31	Z31	X32	Y32	Z32	X33	Y33	Z33	X34	Y34	Z34	
376	1.8800	-0.257263	1.715726	-0.542984	-0.231096	1.712880	-0.765465	-0.211954	1.708178	-0.356265	-0.060006	1.203053	-0.446980	-0.079567	1.196719	-0.670349	-0.115863	1.274897	-0.396981	-0.154095	1.273600	-0.716963	-0.247346	1.242191	-0.483656	-0.261449	1.238333	-0.597889	-0.261520	1.246115	-0.539518	-0.146939	0.992749	-0.354024	-0.136822	0.934259	-0.343234	-0.074167	0.938327	-0.359766	-0.076316	0.998591	-0.372945	-0.262729	0.425143	-0.321994	-0.271854	0.383050	-0.328483	-0.211196	0.376536	-0.325874	-0.206349	0.416351	-0.323517	-0.333813	0.167299	-0.367420	-0.180176	0.060609	-0.313573	-0.143037	0.076497	-0.394556	-0.113418	0.069162	-0.389103	-0.180709	0.944986	-0.750461	-0.163205	0.886683	-0.759642	-0.099428	0.900405	-0.762881	-0.109088	0.958497	-0.755007	-0.288696	0.396872	-0.745551	-0.298600	0.358192	-0.740311	-0.237273	0.346921	-0.749516	-0.235599	0.391513	-0.754704	-0.356782	0.163106	-0.691060	-0.210597	0.054012	-0.761405	-0.168210	0.063112	-0.693978	-0.139425	0.054045	-0.702514	
377	1.8850	-0.257080	1.715474	-0.542871	-0.230897	1.712468	-0.765469	-0.211752	1.707714	-0.356058	-0.060261	1.202818	-0.447003	-0.079901	1.196256	-0.670431	-0.116223	1.274594	-0.396932	-0.154409	1.273018	-0.717061	-0.247739	1.241762	-0.483821	-0.261707	1.237676	-0.598036	-0.261858	1.245561	-0.539673	-0.146795	0.992374	-0.353809	-0.136456	0.933962	-0.343200	-0.073900	0.938211	-0.360053	-0.076306	0.998460	-0.373216	-0.262410	0.425009	-0.322326	-0.271619	0.383045	-0.328785	-0.211004	0.376312	-0.326079	-0.206056	0.416129	-0.323640	-0.334161	0.167110	-0.367711	-0.180292	0.060800	-0.313679	-0.143058	0.076732	-0.394700	-0.113382	0.069418	-0.389379	-0.180602	0.944253	-0.750333	-0.162974	0.885966	-0.759408	-0.099225	0.899827	-0.762684	-0.109010	0.957914	-0.754899	-0.288293	0.396722	-0.745746	-0.298377	0.358086	-0.740522	-0.237029	0.346600	-0.749370	-0.235163	0.391165	-0.754602	-0.357382	0.162494	-0.690893	-0.210360	0.055080	-0.762137	-0.167715	0.064005	-0.694839	-0.138804	0.055006	-0.703422	
378	1.8900	-0.256866	1.715014	-0.542768	-0.230642	1.711803	-0.765515	-0.211493	1.706980	-0.355813	-0.060565	1.202376	-0.447031	-0.080276	1.195550	-0.670523	-0.116630	1.274071	-0.396871	-0.154825	1.272196	-0.717176	-0.248163	1.241004	-0.484002	-0.262009	1.236698	-0.598157	-0.262251	1.244686	-0.539817	-0.146616	0.991775	-0.353620	-0.136032	0.933439	-0.343164	-0.073575	0.937875	-0.360324	-0.076257	0.998111	-0.373470	-0.262040	0.424987	-0.322629	-0.271370	0.382822	-0.329103	-0.210786	0.375837	-0.326295	-0.205732	0.415641	-0.323786	-0.334537	0.166823	-0.368028	-0.180574	0.060629	-0.313937	-0.143246	0.076594	-0.395015	-0.113528	0.069244	-0.389846	-0.180412	0.943270	-0.750234	-0.162627	0.884989	-0.759203	-0.098917	0.899039	-0.762481	-0.108854	0.957115	-0.754778	-0.287868	0.396350	-0.745891	-0.298124	0.357760	-0.740673	-0.236757	0.346069	-0.749239	-0.234712	0.390605	-0.754471	-0.357988	0.161762	-0.690683	-0.210245	0.055836	-0.762689	-0.167325	0.064630	-0.695556	-0.138294	0.055673	-0.704183	
379	1.8950	-0.256622	1.714336	-0.542674	-0.230329	1.710882	-0.765596	-0.211177	1.705974	-0.355530	-0.060922	1.201715	-0.447061	-0.080686	1.194613	-0.670614	-0.117081	1.273296	-0.396813	-0.155349	1.271129	-0.717312	-0.248627	1.239942	-0.484173	-0.262354	1.235420	-0.598250	-0.262693	1.243503	-0.539943	-0.146392	0.990942	-0.353473	-0.135555	0.932671	-0.343142	-0.073191	0.937317	-0.360580	-0.076159	0.997536	-0.373708	-0.261581	0.424423	-0.322726	-0.271086	0.382344	-0.329416	-0.210546	0.375110	-0.326540	-0.205372	0.414895	-0.323969	-0.334926	0.166432	-0.368363	-0.181008	0.060096	-0.314339	-0.143590	0.076080	-0.395481	-0.113834	0.068650	-0.390497	-0.180132	0.942048	-0.750159	-0.162151	0.883787	-0.759028	-0.098487	0.898051	-0.762257	-0.108614	0.956099	-0.754640	-0.287419	0.395754	-0.745980	-0.297843	0.357210	-0.740753	-0.236460	0.345284	-0.749009	-0.234245	0.389828	-0.754315	-0.358586	0.160917	-0.690435	-0.210256	0.056239	-0.763046	-0.167038	0.064954	-0.696114	-0.137911	0.055988	-0.704770	
380	1.9000	-0.256349	1.713440	-0.542587	-0.229964	1.709716	-0.765709	-0.210802	1.704705	-0.355212	-0.061338	1.200827	-0.447090	-0.081135	1.193443	-0.670699	-0.117577	1.272263	-0.396747	-0.155946	1.269805	-0.717436	-0.249147	1.238611	-0.484323	-0.262745	1.233852	-0.598316	-0.263184	1.242015	-0.540053	-0.146126	0.989863	-0.353382	-0.135029	0.931651	-0.343147	-0.072751	0.936534	-0.360815	-0.076005	0.996729	-0.373931	-0.261155	0.423254	-0.322738	-0.270766	0.381600	-0.329718	-0.210273	0.374128	-0.326830	-0.204975	0.413887	-0.324181	-0.335317	0.165911	-0.368721	-0.181582	0.059202	-0.314871	-0.144061	0.075185	-0.396074	-0.114292	0.067599	-0.391261	-0.179757	0.940590	-0.750103	-0.161557	0.882360	-0.758884	-0.097942	0.896847	-0.762004	-0.108285	0.954877	-0.754479	-0.286951	0.394924	-0.746010	-0.297537	0.356433	-0.740761	-0.236146	0.344314	-0.748806	-0.233766	0.388812	-0.754126	-0.359155	0.159970	-0.690116	-0.210398	0.056248	-0.763194	-0.166887	0.064913	-0.696481	-0.137688	0.055894	-0.705161	
381	1.9050	-0.256047	1.712317	-0.542502	-0.229546	1.708302	-0.765850	-0.210363	1.703173	-0.354862	-0.061809	1.199707	-0.447121	-0.081628	1.192048	-0.670767	-0.118111	1.270964	-0.396682	-0.156595	1.268226	-0.717540	-0.249712	1.236962	-0.484458	-0.263185	1.231997	-0.598346	-0.263723	1.240224	-0.540150	-0.145816	0.988542	-0.353351	-0.134459	0.930388	-0.343196	-0.072255	0.935525	-0.361040	-0.075793	0.995686	-0.374143	-0.260660	0.422359	-0.322931	-0.270422	0.380584	-0.330001	-0.209953	0.372892	-0.327146	-0.204523	0.412628	-0.324429	-0.335703	0.165230	-0.369101	-0.182277	0.057955	-0.315511	-0.144642	0.073916	-0.396775	-0.114871	0.066095	-0.392123	-0.179292	0.938903	-0.750065	-0.160842	0.880717	-0.758744	-0.097284	0.895452	-0.761714	-0.107871	0.953454	-0.754292	-0.286454	0.393877	-0.745981	-0.297203	0.355428	-0.740701	-0.235830	0.343085	-0.748530	-0.233269	0.387565	-0.753907	-0.359686	0.158935	-0.689736	-0.210679	0.055821	-0.763125	-0.166896	0.064452	-0.696632	-0.137650	0.055341	-0.705335	
382	1.9100	-0.255713	1.710968	-0.542414	-0.229076	1.706642	-0.766016	-0.209861	1.701381	-0.354486	-0.062342	1.198346	-0.447145	-0.082161	1.190439	-0.670813	-0.118688	1.269415	-0.396622	-0.157286	1.266396	-0.717613	-0.250303	1.234997	-0.484576	-0.263669	1.229878	-0.598347	-0.264308	1.238141	-0.540233	-0.145469	0.986982	-0.353393	-0.133857	0.928870	-0.343296	-0.071716	0.934271	-0.361272	-0.075533	0.994399	-0.374352	-0.259905	0.421014	-0.323012	-0.270044	0.379295	-0.330272	-0.209583	0.371415	-0.327482	-0.204020	0.411106	-0.324705	-0.336081	0.164381	-0.369498	-0.183069	0.056370	-0.316250	-0.145308	0.072287	-0.397565	-0.115543	0.064164	-0.393072	-0.178740	0.936999	-0.750045	-0.160016	0.878868	-0.758625	-0.096518	0.893853	-0.761397	-0.107373	0.951835	-0.754075	-0.285932	0.392596	-0.745895	-0.296841	0.354201	-0.740570	-0.235499	0.341626	-0.748233	-0.232755	0.386085	-0.753670	-0.360170	0.157815	-0.689312	-0.211104	0.054925	-0.762832	-0.167077	0.063548	-0.696555	-0.137815	0.054296	-0.705277	
383	1.9150	-0.255345	1.709390	-0.542321	-0.228555	1.704739	-0.766203	-0.209291	1.699335	-0.354087	-0.062934	1.196741	-0.447164	-0.082726	1.188614	-0.670836	-0.119304	1.267590	-0.396566	-0.158018	1.264307	-0.717668	-0.250961	1.232779	-0.484662	-0.264195	1.227510	-0.598330	-0.264928	1.235782	-0.540297	-0.145096	0.985164	-0.353489	-0.133234	0.927096	-0.343450	-0.071148	0.932766	-0.361520	-0.075231	0.992867	-0.374574	-0.259493	0.419752	-0.323302	-0.269612	0.377727	-0.330521	-0.209175	0.369677	-0.327859	-0.203474	0.409345	-0.325007	-0.336445	0.163342	-0.369892	-0.183933	0.054443	-0.317072	-0.146032	0.070313	-0.398433	-0.116283	0.061842	-0.394110	-0.178117	0.934880	-0.750030	-0.159093	0.876835	-0.758486	-0.095660	0.892057	-0.761038	-0.106804	0.950016	-0.753827	-0.285382	0.391093	-0.745759	-0.296451	0.352749	-0.740382	-0.235153	0.339935	-0.747868	-0.232222	0.384372	-0.753426	-0.360601	0.156598	-0.688816	-0.211671	0.053547	-0.762320	-0.167441	0.062191	-0.696245	-0.138184	0.052766	-0.704967	
